<?xml version="1.0" standalone="no"?>
<!DOCTYPE svg PUBLIC "-//W3C//DTD SVG 20010904//EN"
 "http://www.w3.org/TR/2001/REC-SVG-20010904/DTD/svg10.dtd">
<svg version="1.0" xmlns="http://www.w3.org/2000/svg"
 width="1024.000000pt" height="1024.000000pt" viewBox="0 0 1024.000000 1024.000000"
 preserveAspectRatio="xMidYMid meet">
<metadata>
Created by potrace 1.14, written by Peter Selinger 2001-2017
</metadata>
<g transform="translate(0.000000,1024.000000) scale(0.100000,-0.100000)"
fill="#000000" stroke="none">
<path d="M4265 8599 c-33 -67 -85 -115 -140 -130 -33 -9 -35 -12 -35 -54 0
-41 3 -46 38 -64 65 -34 91 -70 120 -172 15 -52 31 -100 35 -106 11 -18 27
-16 27 2 0 8 16 49 36 92 36 77 78 133 98 133 10 0 104 46 115 56 2 2 -33 41
-77 86 -45 46 -101 112 -124 147 -24 36 -47 66 -53 68 -5 1 -23 -25 -40 -58z"/>
<path d="M4920 8583 c-17 -26 -30 -55 -30 -64 0 -34 -315 -975 -369 -1104 -15
-37 -49 -130 -57 -155 -3 -14 -14 -43 -24 -65 -9 -22 -25 -60 -35 -85 -43
-108 -131 -279 -183 -354 -30 -45 -89 -130 -130 -191 -77 -113 -157 -205 -178
-205 -7 0 -27 -16 -46 -36 -18 -19 -55 -49 -83 -66 -27 -17 -81 -54 -120 -82
-38 -28 -82 -57 -97 -63 l-27 -12 4 57 c7 85 15 131 37 197 27 81 87 234 103
265 8 14 30 58 49 98 20 40 54 100 76 133 22 33 40 63 40 66 0 2 13 23 28 46
44 65 122 186 155 242 88 147 215 369 249 435 22 41 48 86 57 100 35 48 53 99
47 125 -4 14 -22 42 -40 62 l-33 37 -47 -22 -47 -22 -55 25 c-108 50 -117 42
-217 -190 -14 -33 -32 -76 -41 -97 -9 -20 -16 -39 -16 -43 0 -5 -15 -44 -34
-89 -19 -45 -53 -130 -76 -191 -23 -60 -58 -150 -77 -199 -19 -49 -49 -130
-65 -180 -17 -50 -34 -95 -39 -100 -5 -6 -9 -17 -9 -25 0 -9 -17 -59 -39 -111
-21 -52 -52 -140 -69 -195 -93 -306 -103 -346 -117 -470 -8 -71 -18 -143 -21
-160 -5 -27 -2 -31 18 -32 13 0 17 1 11 4 -14 5 -18 83 -5 83 5 0 14 11 20 25
11 24 42 35 42 16 0 -5 9 -7 20 -4 11 3 20 9 20 14 0 5 9 9 20 9 17 0 20 -7
20 -45 0 -43 -2 -47 -47 -75 -83 -51 -216 -213 -278 -339 -89 -180 -108 -358
-56 -521 17 -54 92 -200 103 -200 5 0 15 -6 22 -13 7 -6 27 -23 45 -37 19 -14
47 -37 65 -51 47 -40 361 -244 441 -287 13 -7 29 -29 36 -49 7 -23 49 -75 114
-142 169 -176 240 -252 247 -265 4 -7 -2 -39 -13 -71 -39 -111 -4 -223 102
-326 71 -69 89 -106 89 -187 0 -41 -48 -148 -101 -224 -18 -25 -41 -90 -53
-149 -5 -21 -13 -28 -43 -32 -20 -4 -55 -2 -77 3 -23 5 -67 12 -98 15 -36 4
-58 11 -58 19 0 7 -62 25 -167 48 -93 20 -195 43 -228 51 -33 8 -90 18 -126
21 -37 3 -73 8 -80 10 -8 3 -36 7 -63 10 -27 3 -55 11 -62 18 -24 25 -152 214
-172 254 -35 69 -201 173 -387 244 -33 12 -85 33 -115 45 -30 12 -71 28 -90
35 -19 7 -55 21 -80 33 -25 11 -65 26 -90 33 -25 7 -76 24 -115 39 -38 14
-104 37 -145 50 -41 13 -100 33 -130 44 -71 26 -207 66 -290 86 -36 9 -105 27
-155 40 -191 51 -291 55 -402 13 -44 -16 -55 -26 -74 -65 -26 -55 -28 -136 -5
-201 8 -24 39 -76 68 -117 29 -41 73 -104 98 -139 25 -35 84 -114 132 -177
225 -295 271 -354 277 -359 4 -3 20 -23 37 -45 43 -59 64 -84 118 -142 27 -29
47 -55 45 -56 -2 -2 -43 -29 -90 -60 -59 -39 -91 -67 -99 -87 -7 -17 -15 -30
-19 -30 -12 0 -31 -65 -31 -107 0 -23 -11 -62 -24 -90 -41 -82 -106 -298 -106
-351 0 -5 14 -29 30 -54 l30 -46 -65 -86 c-35 -48 -68 -98 -71 -111 -9 -38 3
-101 39 -191 56 -144 121 -198 368 -308 21 -9 93 -30 160 -46 68 -17 138 -35
154 -39 111 -32 401 -85 416 -75 7 4 9 3 6 -3 -6 -9 47 -20 263 -54 30 -5 114
-11 186 -14 131 -6 133 -6 250 30 201 62 408 128 424 136 8 5 65 25 125 45 61
20 135 47 165 59 30 13 70 28 87 35 18 7 31 15 29 19 -2 3 9 7 26 8 26 2 159
58 198 84 8 5 23 12 33 15 20 7 20 9 6 37 -9 19 -7 18 10 -3 19 -24 21 -24 48
-9 64 37 136 52 245 52 74 -1 108 3 108 11 0 8 3 7 8 -1 4 -7 16 -12 27 -11
11 0 76 -4 145 -10 186 -17 439 -24 880 -25 361 -1 785 9 802 19 3 2 51 6 105
9 280 12 759 85 1173 178 111 25 150 37 150 47 0 5 6 7 14 4 14 -6 173 33 191
46 56 41 363 178 440 196 17 4 39 13 50 19 11 7 58 22 105 35 162 42 265 79
325 114 77 46 173 146 173 180 0 14 -4 26 -8 26 -4 0 -11 7 -14 16 -5 14 -4
15 8 5 10 -9 16 -9 21 -1 9 14 3 21 -22 25 -10 1 -17 8 -15 14 1 6 -4 14 -12
17 -8 3 -12 12 -9 20 3 8 0 14 -7 14 -6 0 -8 4 -5 10 4 6 -6 9 -25 7 -17 -2
-30 -8 -29 -13 0 -5 5 -8 10 -6 5 1 9 -2 9 -8 0 -5 -4 -10 -8 -10 -5 0 -9 -7
-9 -15 0 -17 8 -19 25 -5 6 6 10 7 7 4 -3 -4 0 -13 6 -20 8 -10 4 -11 -18 -5
-15 4 -28 11 -28 16 0 5 -17 25 -38 44 -29 28 -35 39 -27 51 9 12 10 12 8 -5
-2 -12 2 -19 10 -17 8 1 11 -2 8 -6 -3 -5 3 -17 14 -27 20 -18 20 -18 16 6 -3
13 -5 30 -5 37 -1 7 -5 11 -10 8 -5 -4 -7 4 -3 16 5 20 7 19 19 -12 l13 -35
-4 37 c-2 21 0 35 5 32 5 -3 9 -2 9 3 -1 9 -67 53 -80 53 -4 0 -10 7 -14 15
-3 8 -12 12 -20 9 -8 -3 -17 0 -22 7 -5 8 -3 10 6 4 9 -6 11 -4 5 4 -4 8 -20
11 -36 9 -15 -3 -26 -1 -24 3 5 7 -58 32 -115 47 -33 8 -35 11 -38 53 -2 30 7
71 28 129 27 74 47 140 67 217 11 44 -24 126 -75 178 l-49 50 -7 115 c-4 63
-9 259 -12 435 -5 332 -14 415 -59 522 -15 36 -15 37 10 60 20 19 25 33 25 71
0 26 -6 56 -14 67 -7 11 -29 50 -49 87 -20 37 -57 95 -81 130 -25 35 -59 87
-77 117 -17 30 -53 83 -80 118 -27 35 -49 70 -49 77 0 7 -50 59 -111 117 -62
57 -120 112 -130 121 -41 39 -269 187 -339 220 -113 54 -178 83 -250 112 -87
36 -269 96 -289 96 -9 0 -34 7 -56 14 -78 27 -279 49 -407 44 -82 -3 -123 -8
-126 -16 -7 -23 -162 -7 -162 16 1 13 80 73 122 92 55 25 113 25 208 0 96 -25
100 -25 146 6 21 14 90 49 153 76 64 28 161 72 216 98 55 26 110 50 123 54 12
4 22 11 22 16 0 16 32 20 58 6 15 -7 53 -25 84 -39 l57 -26 3 -58 c3 -51 6
-58 25 -61 25 -4 74 61 98 128 17 49 55 83 115 106 67 25 73 32 55 60 -8 13
-15 28 -15 33 0 5 28 19 63 31 217 78 246 91 271 118 10 12 35 26 55 33 71 23
462 211 528 255 66 44 93 87 93 150 0 45 -3 51 -38 74 -30 20 -51 25 -108 26
-93 2 -114 14 -114 63 0 21 6 53 14 71 11 28 11 41 -1 89 -7 31 -16 70 -19 86
-8 49 -26 85 -46 96 -16 9 -25 6 -45 -13 -36 -33 -47 -57 -34 -72 8 -10 5 -16
-14 -24 -14 -6 -25 -16 -25 -22 0 -6 -10 -15 -22 -21 -13 -5 -39 -21 -58 -35
-25 -18 -42 -24 -60 -19 -80 21 -113 17 -175 -21 -33 -21 -78 -47 -100 -59
-100 -53 -186 -102 -250 -144 -39 -25 -79 -51 -90 -58 -19 -11 -111 -70 -195
-123 -22 -14 -78 -50 -125 -80 -47 -30 -93 -60 -103 -65 -9 -6 -37 -23 -62
-40 -25 -16 -83 -53 -130 -84 -47 -30 -110 -71 -140 -91 -30 -20 -71 -45 -90
-55 -19 -10 -51 -30 -70 -45 -39 -31 -180 -119 -250 -157 -24 -13 -47 -29 -51
-34 -7 -12 -37 -30 -157 -99 -40 -23 -85 -53 -101 -66 -16 -13 -50 -33 -74
-44 l-46 -20 -43 29 c-24 15 -53 32 -65 35 -13 4 -23 11 -23 16 0 5 -19 14
-41 20 -23 6 -63 28 -89 47 l-49 36 56 34 c30 18 58 33 61 33 3 0 15 8 26 19
12 10 53 40 92 67 40 27 89 64 110 82 22 18 65 52 96 75 250 185 350 271 341
292 -2 8 6 16 19 20 13 4 48 23 78 43 64 43 277 200 300 222 9 8 37 31 63 50
67 49 232 185 382 315 111 97 133 111 173 117 53 7 171 39 189 51 19 12 3 45
-39 79 -102 85 -99 81 -93 144 4 39 18 80 45 132 68 129 53 136 -116 56 -75
-36 -107 -40 -235 -28 -63 6 -66 8 -87 45 -26 45 -80 109 -92 109 -15 0 -22
-77 -11 -116 12 -45 2 -63 -38 -65 l-26 -2 25 -4 c54 -9 90 -25 90 -40 0 -22
-174 -204 -314 -328 -37 -33 -92 -88 -121 -123 -30 -34 -56 -58 -59 -54 -3 4
-8 32 -12 60 -3 29 -10 52 -14 52 -4 0 -16 -33 -25 -72 -22 -90 -31 -108 -54
-108 -13 0 -19 -7 -19 -27 0 -16 4 -30 8 -33 4 -3 4 -15 -1 -26 -5 -15 -22
-25 -58 -34 -43 -10 -51 -16 -51 -35 0 -16 -42 -61 -152 -161 -83 -76 -181
-168 -217 -203 -155 -150 -372 -345 -407 -366 l-38 -23 -29 20 c-24 17 -42 20
-145 19 -95 -1 -130 -6 -185 -26 l-68 -23 -50 20 c-70 30 -72 41 -21 186 15
44 28 61 69 90 28 21 70 52 93 70 46 34 94 47 54 14 -30 -25 -35 -46 -23 -105
6 -29 13 -53 14 -55 4 -5 99 98 104 111 2 7 18 28 35 48 17 20 45 56 61 80 17
24 53 68 81 99 27 30 69 80 93 110 23 30 72 87 110 125 37 39 80 86 95 105 38
47 152 175 251 281 80 86 139 153 211 242 22 26 80 94 130 151 122 139 141
165 149 206 5 30 2 39 -19 59 -39 37 -106 39 -185 7 -36 -14 -67 -26 -71 -26
-3 0 -12 15 -18 34 -14 37 -8 78 14 111 8 11 14 33 14 50 0 16 4 45 9 62 6 20
6 46 0 67 -8 29 -14 34 -50 40 -23 4 -43 5 -46 3 -2 -2 1 -16 6 -30 11 -29 0
-43 -59 -72 -19 -10 -73 -54 -120 -98 -78 -74 -85 -79 -89 -56 -1 13 -22 44
-44 68 -67 74 -100 62 -122 -43 -8 -38 -21 -76 -29 -85 -7 -9 -89 -167 -180
-351 -199 -401 -373 -740 -407 -795 -14 -22 -30 -51 -37 -65 -61 -126 -140
-241 -257 -375 -94 -108 -97 -111 -122 -124 -13 -6 -23 -18 -23 -25 0 -10 -13
-12 -52 -8 -57 5 -68 13 -68 53 0 14 -14 46 -30 71 -32 49 -74 72 -150 84 -30
5 -40 11 -40 25 0 11 4 19 10 19 5 0 35 33 67 73 32 39 67 81 78 93 86 87 272
446 390 753 35 91 116 271 135 301 6 8 13 22 16 30 3 8 21 49 39 90 79 177
145 339 151 368 6 27 3 32 -20 38 -26 6 -68 -13 -91 -42 -10 -12 -28 -18 -51
-15 -7 0 -23 25 -37 54 -30 64 -68 101 -94 93 -10 -4 -40 -33 -68 -66 -27 -32
-56 -59 -62 -59 -7 -1 -15 11 -18 27 -10 47 -36 90 -59 96 -44 12 -57 6 -86
-41z m289 -161 c-12 -31 -70 -111 -81 -112 -14 0 -8 20 28 91 28 58 38 68 49
59 11 -9 11 -18 4 -38z m1191 -99 c0 -9 -12 -30 -27 -45 -29 -30 -29 -33 -24
-188 2 -47 25 -78 46 -60 13 11 15 6 15 -39 0 -43 -3 -51 -18 -51 -26 0 -52
32 -56 66 -2 16 -5 29 -6 29 -1 0 -3 21 -4 46 -2 34 -10 57 -34 90 l-33 44 36
33 c19 18 35 37 35 43 0 14 38 49 55 49 8 0 15 -8 15 -17z m-472 -503 c89 -60
89 -60 40 -112 -24 -24 -56 -58 -71 -76 l-28 -32 -43 33 c-24 17 -51 45 -60
60 -14 25 -14 32 -2 55 18 33 85 112 96 112 4 0 35 -18 68 -40z m-858 -17 c14
-9 26 -17 28 -18 1 -1 -3 -16 -9 -33 -9 -27 -16 -32 -43 -32 -38 0 -61 16 -69
49 -11 45 46 66 93 34z m1164 -140 c5 -11 -2 -26 -19 -42 l-25 -26 0 31 c0 45
31 71 44 37z m2376 -318 c0 -8 -7 -15 -16 -15 -14 0 -14 3 -4 15 7 8 14 15 16
15 2 0 4 -7 4 -15z m-3843 -45 c-14 -36 -27 -39 -27 -7 0 26 7 37 26 37 9 0
10 -7 1 -30z m-67 -18 c0 -10 5 -23 12 -30 6 -6 9 -14 6 -18 -9 -8 -48 33 -48
51 0 8 7 15 15 15 8 0 15 -8 15 -18z m2480 -67 c-14 -17 -40 -20 -40 -5 0 5
10 19 23 30 19 18 22 19 25 5 2 -9 -2 -22 -8 -30z m-206 -47 c-5 -7 -2 -9 8
-5 13 4 17 -3 20 -36 3 -23 1 -49 -3 -58 -10 -19 -117 -95 -155 -109 -31 -12
-32 4 -3 70 20 46 24 50 82 65 4 2 14 3 22 4 8 0 19 11 26 22 9 17 8 20 -3 16
-7 -2 -12 -10 -10 -16 1 -6 -5 -11 -14 -11 -9 0 -14 3 -12 8 3 4 10 22 17 39
7 18 17 30 22 27 5 -3 6 -10 3 -16z m1618 -138 c18 -17 41 -37 51 -45 24 -21
22 -75 -5 -115 -13 -18 -44 -45 -69 -59 l-46 -25 -30 24 c-47 38 -66 76 -67
138 0 49 3 57 32 83 44 40 89 39 134 -1z m-3002 -10 c0 -4 -11 -17 -24 -29
-24 -23 -24 -23 -31 -2 -3 11 -4 25 0 31 6 10 55 10 55 0z m-1162 -344 c-21
-15 -136 -170 -160 -215 -10 -18 -22 -29 -28 -26 -5 3 -10 -1 -10 -9 0 -9 -4
-16 -10 -16 -14 0 -17 0 -50 -10 l-30 -9 27 47 c14 26 34 56 43 67 9 11 21 32
27 46 16 37 82 90 145 116 63 25 68 26 46 9z m652 -125 c16 -30 13 -32 -27
-25 -47 8 -49 10 -33 29 17 21 47 19 60 -4z m923 -128 c-7 -2 -13 -12 -13 -20
0 -10 -6 -13 -16 -9 -9 3 -18 6 -20 6 -2 0 -4 7 -4 15 0 10 10 15 33 14 17 0
26 -3 20 -6z m-1378 -423 c14 -22 -6 -50 -36 -50 -24 0 -29 4 -29 23 0 13 3
27 7 30 10 11 51 8 58 -3z m-894 -446 c75 -23 92 -32 137 -73 131 -121 212
-358 212 -621 0 -120 -14 -191 -59 -293 l-21 -48 -72 38 c-40 20 -88 47 -106
59 -18 13 -54 33 -80 45 -26 12 -49 25 -52 29 -3 3 -59 41 -125 84 -66 44
-134 91 -150 105 -17 14 -43 35 -59 46 -40 29 -81 122 -94 215 -16 113 30 342
76 383 53 47 280 65 393 31z m2997 -445 c2 -17 -6 -37 -21 -55 l-24 -28 -26
29 c-15 17 -27 35 -27 42 0 23 32 44 64 41 25 -2 32 -8 34 -29z m-2213 -929
c16 -7 13 -9 -17 -9 -21 -1 -38 4 -38 9 0 12 27 12 55 0z m2275 -200 c6 -11 8
-20 6 -20 -3 0 -10 9 -16 20 -6 11 -8 20 -6 20 3 0 10 -9 16 -20z m1607 -240
c0 -30 6 -68 12 -83 14 -36 15 -35 -11 -35 -13 0 -42 -3 -65 -7 l-41 -7 -21
47 c-28 63 -27 91 6 121 22 20 35 24 72 22 l46 -3 2 -55z m306 -545 c15 -14
27 -32 27 -40 0 -7 -13 -47 -29 -87 -17 -40 -36 -96 -43 -123 -7 -27 -21 -58
-31 -68 -10 -10 -16 -25 -13 -32 3 -9 -14 -21 -49 -35 -41 -17 -57 -30 -69
-55 -16 -34 -23 -38 -83 -50 -40 -8 -42 4 -9 48 27 36 91 183 91 208 0 9 14
33 32 52 31 34 53 70 89 147 32 69 45 74 87 35z m-3836 -347 c12 -30 22 -39
48 -44 19 -3 38 -3 44 1 24 14 8 -12 -30 -50 -34 -34 -41 -38 -52 -25 -7 8
-29 16 -51 17 -56 3 -66 9 -66 42 0 16 -4 33 -10 36 -19 12 -10 42 18 56 15 8
31 20 35 27 12 19 45 -12 64 -60z m-196 -155 c-12 -20 -14 -14 -5 12 4 9 9 14
11 11 3 -2 0 -13 -6 -23z m-101 -20 c0 -3 -7 -2 -16 1 -12 4 -15 2 -11 -9 4
-8 2 -17 -2 -19 -6 -4 -8 31 -2 41 2 4 31 -9 31 -14z m-55 -13 c3 -5 1 -10 -4
-10 -6 0 -11 5 -11 10 0 6 2 10 4 10 3 0 8 -4 11 -10z m195 -26 c0 -2 -7 -4
-15 -4 -8 0 -15 4 -15 10 0 5 7 7 15 4 8 -4 15 -8 15 -10z m-22 -19 c33 -2 39
0 35 14 -5 12 -1 11 13 -4 25 -26 67 -106 59 -113 -11 -11 -74 30 -68 44 3 8
0 14 -7 14 -6 0 -9 4 -5 9 8 14 -30 32 -50 25 -17 -7 -35 10 -35 31 0 6 4 4 9
-4 5 -7 27 -15 49 -16z m4367 -5 c-3 -5 -12 -10 -18 -10 -7 0 -6 4 3 10 19 12
23 12 15 0z m-4255 -15 c-7 -9 -15 -13 -17 -11 -7 7 7 26 19 26 6 0 6 -6 -2
-15z m-3008 -58 c5 -38 3 -45 -7 -37 -20 16 -28 60 -14 76 15 18 15 18 21 -39z
m7258 49 c0 -3 -4 -8 -10 -11 -5 -3 -10 -1 -10 4 0 6 5 11 10 11 6 0 10 -2 10
-4z m-4130 -52 c0 -27 -18 -23 -22 6 -4 24 -2 27 9 19 7 -7 13 -17 13 -25z
m-788 4 c-7 -7 -12 -8 -12 -2 0 14 12 26 19 19 2 -3 -1 -11 -7 -17z m63 2 c9
-15 -75 -34 -89 -20 -8 9 -7 11 4 10 30 -4 51 0 45 10 -3 6 3 10 14 10 11 0
22 -4 26 -10z m3803 -248 c-13 -37 -10 -49 17 -56 42 -11 28 -76 -16 -76 -14
0 -16 -16 -15 -150 1 -145 0 -150 -19 -143 -17 5 -18 4 -6 -11 12 -14 10 -16
-12 -16 -34 0 -39 11 -21 45 20 38 3 54 -25 23 -20 -20 -21 -21 -15 -3 4 11 4
17 -1 13 -4 -4 -13 0 -20 8 -10 15 -12 15 -12 -2 0 -10 6 -25 14 -32 18 -19
16 -49 -4 -57 -10 -4 -69 -15 -131 -26 -63 -10 -125 -22 -138 -25 -15 -4 -24
-2 -24 6 0 6 5 8 10 5 6 -4 16 -2 23 3 7 5 19 10 27 10 8 1 40 8 70 17 30 8
69 15 86 15 17 0 37 7 44 15 10 12 10 15 -4 15 -20 0 -21 16 -1 24 8 3 15 16
15 30 0 13 -7 26 -15 30 -8 3 -15 1 -15 -4 0 -6 5 -10 10 -10 6 0 10 -9 10
-19 0 -25 -27 -35 -34 -13 -2 9 -4 6 -3 -8 2 -19 -3 -26 -20 -28 -16 -2 -23 2
-23 12 0 9 -6 16 -13 16 -17 0 -18 5 -22 117 -3 66 -10 105 -25 137 -42 94
-42 90 -5 162 19 37 35 72 35 79 0 18 25 25 60 18 17 -3 30 -1 30 5 0 21 60
22 93 2 43 -26 54 -25 62 7 4 16 12 34 18 42 10 11 13 -4 18 -70 3 -46 2 -94
-3 -107z m-2623 128 c4 -13 15 -20 31 -20 13 0 24 -5 24 -11 0 -6 6 -9 13 -6
12 5 43 -30 34 -39 -4 -4 -139 -29 -197 -37 -34 -4 -342 11 -348 18 -2 2 2 12
10 24 18 29 52 34 216 33 133 -1 142 0 142 18 0 37 64 54 75 20z m3788 0 c8
-11 16 -17 20 -14 3 3 4 -2 3 -13 -2 -10 -11 -19 -22 -20 -10 -2 -14 0 -8 3 7
3 10 14 7 24 -3 11 -10 17 -16 13 -5 -3 -7 -1 -3 5 3 5 0 13 -6 15 -9 4 -10 6
-1 6 6 1 18 -8 26 -19z m-7364 -46 c24 -8 63 -26 85 -39 23 -13 75 -36 116
-51 41 -15 84 -33 95 -40 37 -22 120 -44 159 -41 31 2 39 -2 42 -16 1 -11 5
-21 8 -25 11 -11 181 -72 202 -72 37 0 128 -31 224 -78 101 -48 119 -56 163
-72 27 -10 27 -10 12 -41 -12 -22 -20 -28 -28 -20 -7 5 -46 22 -87 37 -41 15
-84 33 -95 40 -22 14 -388 137 -445 149 -44 10 -195 66 -335 125 -88 38 -163
68 -210 86 -54 21 -74 54 -33 54 13 0 30 5 38 10 21 13 38 12 89 -6z m6649
-196 c-2 -17 -16 -24 -78 -39 -127 -31 -167 -19 -50 14 30 9 64 23 75 31 30
23 57 20 53 -6z m-5830 -38 c9 -5 82 -32 162 -61 200 -71 194 -67 160 -108
-14 -16 -24 -20 -33 -13 -6 5 -30 15 -52 22 -22 7 -72 28 -111 46 -38 19 -85
37 -102 40 -18 4 -35 11 -38 15 -3 5 -13 9 -24 9 -16 0 -30 18 -30 40 0 5 10
11 23 13 12 2 23 5 25 6 1 0 10 -3 20 -9z m2795 -11 c53 -28 67 -50 67 -110 0
-38 -5 -61 -15 -69 -8 -7 -15 -18 -15 -24 0 -19 -53 -44 -75 -36 -11 4 -24 5
-29 2 -5 -3 -6 0 -2 6 3 6 -3 13 -14 17 -30 10 -52 49 -57 103 -3 36 0 52 11
61 9 8 16 18 16 24 0 31 71 47 113 26z m3075 -8 c25 -16 9 -46 -26 -49 -17 -2
-32 0 -32 5 0 4 -3 18 -6 31 -6 19 -3 22 22 22 16 0 35 -4 42 -9z m-3692 -166
c-2 -71 -22 -91 -101 -106 -33 -6 -67 -17 -76 -25 -8 -8 -21 -14 -28 -14 -6 0
-25 -7 -41 -15 -21 -11 -28 -20 -24 -33 5 -14 4 -14 -4 -2 -10 12 -18 12 -64
-5 -29 -10 -61 -28 -71 -39 -10 -12 -15 -15 -11 -7 6 11 2 13 -17 7 -13 -4
-30 -8 -36 -8 -15 -1 -18 -18 -4 -18 5 0 8 -11 7 -24 0 -13 -5 -22 -9 -19 -5
3 -6 10 -4 17 3 6 -2 17 -9 24 -8 7 -14 8 -14 3 0 -5 -9 -8 -21 -6 -11 2 -42
-6 -67 -18 -26 -12 -63 -24 -82 -26 -19 -1 -49 -9 -66 -16 -18 -7 -36 -10 -40
-6 -5 5 -19 2 -32 -4 -23 -12 -23 -13 -3 -18 12 -3 19 -1 15 4 -3 5 0 9 5 9 6
0 11 -3 11 -7 0 -13 -17 -35 -26 -35 -5 0 -8 -4 -7 -9 2 -5 -4 -9 -14 -9 -14
0 -14 2 2 20 16 18 16 20 2 20 -10 0 -17 4 -17 10 0 16 -27 0 -39 -23 -6 -12
-10 -15 -7 -5 4 14 0 15 -24 8 -44 -13 -51 -20 -44 -43 6 -22 6 -22 -10 -2
-12 14 -14 15 -10 4 3 -10 0 -20 -7 -25 -7 -4 -10 -3 -5 4 3 6 2 13 -4 17 -5
3 -10 0 -10 -7 0 -9 -3 -9 -10 2 -7 12 -12 12 -22 2 -6 -6 -20 -12 -31 -12
-10 0 -16 -4 -12 -9 3 -5 0 -13 -6 -17 -7 -4 -9 -3 -5 4 3 6 2 13 -4 17 -5 3
-10 2 -10 -2 0 -13 -53 -41 -67 -36 -6 2 -14 -1 -18 -6 -3 -6 0 -8 8 -5 8 3
18 1 21 -4 3 -5 -10 -8 -29 -5 -33 3 -47 -9 -26 -22 6 -3 9 -14 8 -25 -1 -19
-2 -19 -23 1 -18 16 -26 19 -41 10 -10 -6 -12 -11 -5 -11 6 0 11 -10 11 -22
-1 -17 -2 -19 -6 -5 -6 23 -26 22 -49 -5 -19 -21 -19 -21 1 -15 18 7 19 6 3
-6 -10 -8 -14 -18 -10 -23 4 -4 -1 -2 -10 5 -16 12 -18 11 -19 -10 -1 -18 -2
-20 -6 -6 -3 10 3 27 13 38 9 10 14 22 9 27 -4 4 -10 1 -12 -5 -3 -7 -19 -13
-36 -14 -29 0 -30 -1 -9 -9 28 -12 29 -20 1 -15 -16 3 -19 0 -15 -12 5 -13 4
-14 -9 -3 -8 7 -12 16 -9 21 6 10 -19 12 -29 2 -4 -3 0 -15 10 -25 9 -11 11
-18 5 -18 -7 0 -15 0 -19 0 -5 0 -8 4 -8 10 0 15 -25 36 -26 22 -1 -7 -3 -16
-4 -22 -1 -5 -3 -13 -4 -17 0 -4 -8 3 -17 15 -8 12 -12 28 -9 35 4 6 -1 3 -9
-7 -19 -23 -19 -31 -6 -56 6 -12 7 -21 1 -25 -12 -7 -33 29 -23 41 4 5 -2 2
-12 -6 -18 -14 -19 -13 -13 3 3 9 2 17 -3 17 -6 0 -10 -5 -10 -11 0 -5 -6 -7
-12 -3 -7 4 -4 -2 7 -13 11 -11 22 -19 25 -17 3 1 7 -7 7 -19 2 -14 -1 -17 -6
-9 -6 10 -10 10 -21 -2 -7 -9 -16 -13 -22 -10 -13 8 12 35 26 27 6 -3 7 -2 3
3 -5 5 -13 10 -18 10 -5 1 -14 2 -20 3 -5 0 -7 6 -3 12 5 8 1 8 -14 0 -17 -9
-23 -8 -30 5 -8 14 -10 14 -22 -1 -11 -13 -10 -15 3 -9 13 5 16 -1 15 -30 -1
-24 -5 -33 -11 -27 -5 5 -17 7 -26 5 -9 -3 -5 2 9 11 l25 16 -29 -6 c-27 -6
-28 -5 -15 12 13 16 12 17 -3 5 -9 -8 -22 -11 -28 -7 -5 3 -10 -1 -10 -9 0 -9
-6 -16 -12 -17 -10 0 -10 -2 0 -6 6 -2 12 -13 12 -24 0 -12 -5 -16 -14 -13 -8
3 -17 1 -21 -5 -10 -17 -22 -13 -28 8 -3 11 1 22 8 25 8 3 12 -2 10 -12 -1 -9
0 -11 2 -4 3 7 9 10 14 7 5 -3 6 0 3 8 -9 23 -53 28 -66 7 -16 -24 -35 -14
-43 21 -8 35 -25 33 -43 -4 -7 -15 -17 -27 -21 -27 -13 0 -8 29 6 34 7 3 13
10 13 16 0 6 -4 9 -9 6 -5 -4 -8 5 -7 18 2 18 -1 23 -11 19 -8 -3 -13 -14 -10
-24 3 -11 1 -19 -4 -19 -4 0 -7 -6 -5 -12 1 -7 1 -10 -1 -5 -3 4 -8 5 -12 2
-4 -2 -13 11 -19 30 -6 20 -6 35 -1 35 5 0 9 -9 9 -19 0 -11 4 -23 10 -26 5
-3 9 9 8 30 -1 25 -5 34 -15 31 -7 -3 -13 2 -14 12 0 13 -3 12 -11 -5 -11 -23
-28 -31 -28 -13 0 5 -7 7 -16 3 -13 -5 -13 -7 -2 -14 10 -7 9 -9 -5 -9 -14 0
-17 5 -12 20 6 18 2 19 -47 15 -42 -4 -58 -1 -75 14 -30 25 -21 61 16 61 15 0
36 6 47 14 18 13 25 12 61 -4 22 -10 83 -27 135 -39 53 -12 104 -28 114 -36
24 -19 63 -19 106 -1 19 8 46 16 59 18 13 2 29 7 35 10 15 10 94 30 124 31 14
1 31 8 39 15 8 8 24 12 37 9 13 -2 22 1 21 7 -1 5 48 28 108 50 61 21 133 49
160 62 28 12 64 26 80 29 31 7 137 46 190 69 17 8 48 19 70 26 22 7 83 32 135
57 52 24 104 48 115 52 11 5 45 18 75 30 30 13 75 29 100 36 41 12 90 30 145
55 11 5 49 19 84 31 36 12 87 32 115 45 28 13 54 24 57 24 4 0 6 -25 5 -55z
m2255 -15 c5 0 9 -5 9 -11 0 -7 -9 -5 -24 4 -23 15 -24 15 -19 -3 7 -27 -6
-25 -17 3 l-9 22 -6 -22 c-7 -22 -35 -40 -35 -23 0 6 -7 10 -16 10 -8 0 -12
-4 -9 -10 3 -5 1 -10 -4 -10 -6 0 -11 6 -11 13 0 9 -3 8 -9 -2 -11 -17 -61
-23 -61 -8 0 7 -5 5 -10 -3 -9 -13 -10 -13 -10 0 0 10 -3 11 -8 4 -4 -6 -20
-13 -35 -16 -15 -3 -25 -3 -22 0 3 3 -5 12 -17 19 -13 7 -17 12 -10 13 7 0 10
5 7 10 -7 11 -3 12 45 14 17 0 30 -2 30 -6 0 -5 -5 -8 -12 -8 -6 0 -8 -3 -5
-7 4 -3 16 2 27 12 17 15 25 17 39 8 14 -9 21 -9 30 0 17 18 145 25 149 10 2
-7 8 -13 13 -13z m19 20 c0 -5 -4 -10 -10 -10 -5 0 -10 5 -10 10 0 6 5 10 10
10 6 0 10 -4 10 -10z m44 -19 c-2 -3 -12 3 -22 13 -16 17 -16 18 5 5 12 -7 20
-15 17 -18z m-1654 -86 c0 -8 -13 -23 -30 -33 -25 -16 -27 -20 -16 -33 18 -19
3 -64 -19 -55 -8 3 -22 9 -30 12 -8 3 -15 1 -15 -5 0 -18 -61 -13 -75 6 -14
18 -1 63 18 63 5 0 21 9 36 19 49 35 131 51 131 26z m-549 -87 c15 -19 15 -23
1 -39 -13 -15 -27 -17 -85 -13 -79 5 -105 18 -85 42 38 45 138 51 169 10z
m-61 -102 c0 -2 -7 -7 -16 -10 -8 -3 -12 -2 -9 4 6 10 25 14 25 6z m-586 -24
c3 -5 -1 -9 -9 -9 -8 0 -12 4 -9 9 3 4 7 8 9 8 2 0 6 -4 9 -8z m690 -9 c11
-27 -7 -33 -34 -12 -14 12 -19 18 -12 14 6 -3 12 -1 12 4 0 17 27 13 34 -6z
m-699 -30 c-2 -10 -4 -21 -4 -25 -1 -5 -6 -8 -13 -8 -9 0 -9 3 -1 11 6 6 9 18
6 25 -3 8 -1 14 5 14 6 0 9 -8 7 -17z m640 7 c-3 -5 -14 -8 -25 -7 -24 2 -18
12 9 14 12 1 19 -2 16 -7z m-2834 -36 c24 -17 61 -42 81 -55 21 -13 38 -27 38
-31 0 -5 7 -8 15 -8 8 0 15 -6 15 -13 0 -7 11 -14 26 -15 14 -1 23 2 19 7 -3
5 -1 12 4 15 5 4 8 -2 6 -11 -2 -10 -4 -21 -4 -25 -1 -3 -7 -8 -13 -11 -7 -2
-5 -3 5 -2 9 2 17 -1 17 -5 0 -5 20 -12 45 -15 52 -8 81 -27 70 -45 -6 -10 -9
-9 -16 1 -7 11 -9 11 -9 1 0 -13 -68 -8 -105 9 -11 4 -54 17 -95 28 -134 35
-253 88 -265 119 -3 9 0 12 7 9 52 -21 52 -21 22 12 -21 22 -30 40 -26 53 8
32 105 21 163 -18z m2277 10 c2 -1 -5 -5 -15 -8 -9 -4 -14 -4 -10 0 4 4 1 14
-6 23 -11 14 -10 15 8 1 11 -8 21 -15 23 -16z m-118 12 c0 -2 -7 -9 -15 -16
-13 -11 -14 -10 -9 4 5 14 24 23 24 12z m100 -48 c0 -12 -6 -9 -26 13 -19 22
-19 22 4 8 12 -8 22 -17 22 -21z m-430 -42 c-7 -7 -13 -7 -20 0 -6 6 -3 10 10
10 13 0 16 -4 10 -10z m-101 -10 c-2 -2 -15 -9 -29 -15 -24 -11 -24 -11 -6 3
16 13 49 24 35 12z m-115 -37 c-3 -5 -10 -7 -15 -3 -5 3 -7 10 -3 15 3 5 10 7
15 3 5 -3 7 -10 3 -15z m49 -20 c-8 -8 -16 -8 -30 0 -16 11 -16 11 5 6 14 -4
22 -2 22 6 0 7 3 9 7 6 4 -4 2 -12 -4 -18z m-1088 -139 c-3 -5 -12 -10 -18
-10 -7 0 -6 4 3 10 19 12 23 12 15 0z m99 -16 c5 -12 2 -15 -10 -10 -12 5 -15
2 -10 -9 4 -11 2 -14 -6 -9 -6 4 -17 -1 -23 -10 -11 -15 -13 -15 -19 -1 -3 9
-2 14 3 11 4 -3 18 6 29 19 26 29 28 30 36 9z m596 -4 c6 -11 7 -20 2 -20 -6
0 -12 9 -15 20 -3 11 -3 20 -1 20 2 0 8 -9 14 -20z m-730 -20 c0 -5 -5 -10
-11 -10 -5 0 -7 5 -4 10 3 6 8 10 11 10 2 0 4 -4 4 -10z m549 -30 c0 -10 -2
-11 -6 -2 -2 6 -8 10 -13 7 -4 -3 -6 4 -3 16 4 16 8 17 14 7 5 -7 8 -20 8 -28z
m-99 10 c0 -5 -4 -10 -10 -10 -5 0 -10 5 -10 10 0 6 5 10 10 10 6 0 10 -4 10
-10z m-107 -20 c-3 -12 -8 -19 -11 -16 -5 6 5 36 12 36 2 0 2 -9 -1 -20z m-98
-10 c-3 -5 -14 -10 -23 -9 -14 0 -13 2 3 9 27 11 27 11 20 0z m329 2 c3 -5 -1
-9 -9 -9 -8 0 -12 4 -9 9 3 4 7 8 9 8 2 0 6 -4 9 -8z m-431 -17 c-3 -9 -8 -14
-10 -11 -3 3 -2 9 2 15 9 16 15 13 8 -4z m307 11 c0 -3 -4 -8 -10 -11 -5 -3
-10 -1 -10 4 0 6 5 11 10 11 6 0 10 -2 10 -4z m-272 -29 c14 4 14 3 2 -5 -16
-12 -30 -7 -29 11 0 9 2 9 5 0 3 -7 13 -9 22 -6z m166 1 c-3 -4 -11 -5 -19 -1
-21 7 -19 12 4 10 11 0 18 -5 15 -9z m-54 -2 c0 -3 -4 -8 -10 -11 -5 -3 -10
-1 -10 4 0 6 5 11 10 11 6 0 10 -2 10 -4z m127 -3 c-4 -3 -2 -12 5 -20 8 -11
7 -12 -6 -7 -18 7 -22 34 -4 34 6 0 8 -3 5 -7z m78 -3 c3 -5 1 -10 -4 -10 -6
0 -11 5 -11 10 0 6 2 10 4 10 3 0 8 -4 11 -10z m-157 -46 c-3 -14 -5 -12 -10
9 -3 19 -2 25 4 19 6 -6 8 -18 6 -28z m-94 -4 c-6 -6 -10 -3 -10 10 0 13 4 16
10 10 7 -7 7 -13 0 -20z m121 20 c3 -5 1 -10 -4 -10 -6 0 -11 5 -11 10 0 6 2
10 4 10 3 0 8 -4 11 -10z"/>
<path d="M3538 5436 c-62 -17 -92 -38 -108 -76 -18 -43 1 -60 70 -66 30 -3 66
-12 80 -21 l27 -15 -16 -54 c-9 -30 -20 -54 -25 -54 -5 0 -32 -15 -60 -34 -84
-55 -147 -87 -158 -80 -6 4 -6 -2 1 -15 14 -26 27 -27 40 -3 5 9 26 24 48 31
21 8 54 25 73 37 37 26 50 29 50 15 0 -5 -16 -18 -35 -29 -19 -12 -37 -32 -41
-46 -7 -31 -8 -31 -45 -9 -31 19 -33 18 -44 -15 -6 -21 -4 -23 14 -17 11 3 30
1 41 -5 12 -6 29 -8 38 -4 29 13 82 10 82 -5 0 -7 6 -11 14 -8 8 3 16 -2 19
-14 8 -31 27 -22 28 14 1 23 3 26 6 10 7 -35 22 -28 43 20 26 56 26 97 1 104
-15 4 -21 17 -26 57 -4 28 -5 65 -3 81 3 26 8 31 43 38 67 15 90 32 93 69 7
84 -115 130 -250 94z"/>
<path d="M8275 3750 c-19 -36 -12 -53 18 -44 21 6 21 6 3 -9 -19 -14 -19 -15
1 -36 30 -33 77 -26 81 12 2 19 -1 27 -12 27 -9 0 -16 5 -16 11 0 5 4 8 9 5
11 -7 22 31 14 50 -3 9 -20 14 -44 14 -33 0 -41 -4 -54 -30z"/>
<path d="M7921 2050 c1 -30 -2 -70 -6 -88 -6 -25 -5 -32 6 -30 19 4 29 20 24
38 -3 9 -1 30 4 48 6 20 6 34 0 38 -6 3 -14 16 -19 28 -7 16 -9 7 -9 -34z"/>
<path d="M5350 2021 c0 -5 5 -13 10 -16 6 -3 10 -2 10 4 0 5 -4 13 -10 16 -5
3 -10 2 -10 -4z"/>
<path d="M4375 1810 c3 -5 8 -10 11 -10 2 0 4 5 4 10 0 6 -5 10 -11 10 -5 0
-7 -4 -4 -10z"/>
<path d="M4296 1752 l-19 -27 24 22 c12 12 21 24 18 27 -2 2 -13 -8 -23 -22z"/>
<path d="M4330 1770 c0 -5 5 -10 10 -10 6 0 10 5 10 10 0 6 -4 10 -10 10 -5 0
-10 -4 -10 -10z"/>
<path d="M4198 1726 c-32 -17 -58 -35 -58 -39 0 -4 8 -3 19 2 10 6 22 7 26 3
5 -4 5 -1 1 6 -5 8 0 12 12 12 20 0 71 35 62 43 -3 2 -31 -10 -62 -27z"/>
<path d="M2646 1418 c3 -4 9 -8 15 -8 5 0 9 4 9 8 0 5 -7 9 -15 9 -8 0 -12 -4
-9 -9z"/>
<path d="M3200 1346 c0 -2 7 -7 16 -10 8 -3 12 -2 9 4 -6 10 -25 14 -25 6z"/>
<path d="M2846 1307 c-16 -12 -16 -14 -3 -14 9 0 18 6 21 14 3 7 4 13 3 13 -2
0 -11 -6 -21 -13z"/>
<path d="M3020 1290 c-9 -6 -10 -10 -3 -10 6 0 15 5 18 10 8 12 4 12 -15 0z"/>
<path d="M2922 1270 c-19 -18 -21 -18 -25 -2 -4 16 -5 16 -6 0 -2 -25 18 -33
33 -12 7 9 18 14 24 10 7 -4 12 -3 12 3 0 19 -17 20 -38 1z"/>
<path d="M6746 1925 c-3 -8 -1 -15 4 -15 6 0 10 7 10 15 0 8 -2 15 -4 15 -2 0
-6 -7 -10 -15z"/>
<path d="M5370 1790 c-8 -15 -8 -18 3 -14 8 3 14 11 14 19 0 20 -4 19 -17 -5z"/>
<path d="M2178 1433 c7 -3 16 -2 19 1 4 3 -2 6 -13 5 -11 0 -14 -3 -6 -6z"/>
<path d="M3363 8462 c-6 -4 -14 -50 -18 -102 -3 -52 -8 -102 -10 -110 -2 -8
-6 -38 -9 -65 -3 -28 -10 -63 -15 -78 -6 -16 -11 -45 -11 -65 0 -87 -15 -114
-145 -256 l-60 -66 -42 27 c-23 16 -69 50 -103 77 -66 52 -79 51 -80 -4 0 -32
-58 -428 -63 -438 -10 -16 -63 -448 -72 -587 -3 -49 -10 -135 -15 -190 -5 -55
-12 -125 -15 -155 -14 -154 -25 -506 -24 -753 1 -258 0 -279 -17 -298 -26 -29
-25 -108 3 -138 21 -23 22 -27 39 -716 2 -115 7 -230 11 -255 3 -25 7 -56 7
-70 1 -14 3 -37 4 -52 4 -51 61 -28 95 37 8 17 24 67 34 110 16 71 18 131 19
515 1 239 4 464 7 499 4 42 2 69 -5 78 -14 18 -4 274 17 416 52 347 124 660
196 854 27 73 49 138 49 143 0 22 89 276 122 350 9 19 21 52 28 72 6 20 20 47
30 60 21 27 54 140 51 177 0 13 -11 39 -22 58 -12 19 -19 37 -16 40 4 3 16
-11 28 -31 11 -20 27 -36 34 -36 18 0 29 -89 21 -166 -15 -145 -18 -219 -8
-209 10 11 37 130 46 209 3 27 17 84 31 128 14 43 25 87 25 96 0 9 16 32 35
51 19 19 35 37 35 41 0 4 29 27 65 51 36 23 65 46 65 49 0 4 -10 15 -21 26
-18 16 -20 26 -15 74 8 85 74 228 141 311 26 31 50 87 42 96 -3 3 -30 7 -59 9
-104 6 -214 28 -258 50 -43 22 -120 88 -120 104 0 13 -46 39 -57 32z m-483
-2134 c0 -75 -25 -100 -44 -45 -7 19 -5 32 8 51 22 35 36 33 36 -6z"/>
<path d="M2152 8328 c2 -19 -12 -46 -52 -99 -60 -80 -110 -165 -110 -189 0
-17 -73 -91 -106 -109 -61 -30 -185 -59 -279 -64 l-50 -2 3 -50 c2 -27 10 -88
18 -135 23 -136 53 -333 74 -495 11 -82 24 -172 29 -200 6 -27 17 -106 26
-175 29 -229 56 -384 80 -455 13 -38 28 -88 34 -110 6 -22 26 -65 46 -95 42
-65 47 -105 13 -94 -13 3 -43 21 -68 39 -42 30 -122 75 -134 75 -8 0 -51 -88
-65 -130 -10 -31 -18 -38 -56 -48 -57 -15 -60 -40 -9 -79 79 -61 84 -68 103
-135 20 -73 46 -121 63 -116 6 2 26 40 45 84 20 49 44 89 63 104 24 20 30 33
30 65 1 43 13 65 47 83 21 11 23 9 33 -30 7 -24 20 -70 30 -103 10 -33 21 -87
24 -121 5 -61 72 -251 134 -384 17 -36 39 -87 50 -115 11 -27 43 -104 72 -170
68 -158 166 -434 261 -735 71 -225 83 -243 143 -221 32 13 33 40 10 211 -8 63
-19 151 -25 195 -5 44 -16 114 -24 155 -7 41 -18 113 -25 160 -6 47 -15 96
-19 110 -5 14 -19 59 -31 100 -13 41 -28 89 -35 105 -66 156 -129 473 -141
696 -3 68 -7 140 -9 159 -1 19 -3 45 -4 58 0 12 -8 22 -16 22 -20 0 -19 24 0
40 12 10 15 29 14 69 -3 65 19 835 26 931 2 36 7 110 10 165 11 183 36 490 42
518 6 32 41 53 103 63 44 7 70 26 70 50 0 8 -7 17 -15 20 -12 5 -13 9 -4 21
10 12 7 13 -21 8 -18 -3 -41 -10 -51 -15 -10 -6 -36 -10 -59 -10 -22 0 -57 -7
-77 -15 -19 -8 -38 -15 -42 -15 -4 0 -7 27 -6 60 0 34 -4 64 -10 68 -36 26
-85 144 -85 205 0 11 -9 21 -21 24 -11 3 -18 11 -15 19 3 7 -4 23 -15 36 l-20
23 3 -27z m-8 -343 c1 -44 6 -94 10 -111 7 -27 5 -32 -13 -37 -21 -5 -30 -50
-12 -61 4 -3 14 -26 21 -50 11 -39 10 -50 -6 -85 -21 -44 -44 -55 -37 -17 3
13 0 27 -6 30 -7 4 -11 41 -11 92 0 46 -4 92 -9 102 -5 9 -20 42 -35 72 l-26
55 21 16 c26 19 20 53 -7 42 -12 -4 -15 -2 -12 8 6 17 43 28 86 26 l33 -2 3
-80z m-135 -781 c28 -26 51 -54 51 -61 0 -7 -9 -27 -20 -45 -24 -39 -26 -66
-5 -74 8 -4 15 -12 15 -20 0 -8 9 -14 20 -14 27 0 25 -18 -2 -29 -13 -5 -34
-20 -48 -33 -35 -32 -118 -75 -162 -83 -35 -7 -38 -5 -52 29 -8 20 -20 36 -25
36 -6 0 -11 4 -11 10 0 5 -14 32 -30 59 -28 44 -32 81 -10 81 15 0 21 37 9 63
-9 19 -8 31 5 58 27 56 63 74 143 73 70 -1 71 -1 122 -50z m59 -836 c7 -7 12
-26 12 -42 0 -17 7 -44 15 -60 17 -32 20 -72 6 -80 -19 -12 -39 6 -51 47 -8
23 -17 46 -22 52 -11 13 -10 52 2 76 12 22 21 24 38 7z m66 -272 c-8 -21 -34
-28 -50 -15 -17 14 -8 59 14 76 13 11 18 8 29 -17 6 -17 10 -37 7 -44z m46
-228 l-1 -33 -19 24 c-21 24 -19 41 6 41 9 0 14 -11 14 -32z m281 -944 c6 -57
-8 -106 -31 -102 -8 2 -17 14 -19 28 -5 35 20 131 33 127 6 -2 14 -26 17 -53z"/>
<path d="M867 7008 c-2 -7 -23 -58 -45 -113 -21 -55 -50 -127 -62 -160 -26
-70 -56 -92 -89 -69 -27 19 -65 11 -103 -21 -25 -21 -39 -26 -65 -22 -27 5
-33 3 -33 -13 0 -26 47 -112 136 -247 237 -363 336 -496 494 -668 77 -83 163
-182 215 -245 21 -25 41 -46 46 -48 4 -2 48 -51 97 -110 49 -59 116 -137 148
-173 32 -36 89 -104 126 -150 37 -46 98 -122 135 -169 37 -47 82 -104 98 -125
40 -52 205 -301 205 -310 0 -17 91 -145 103 -145 18 0 46 -41 82 -117 31 -67
40 -75 48 -44 3 11 18 28 35 38 l30 19 -17 34 c-10 19 -29 54 -44 78 -15 23
-42 72 -61 110 -156 313 -250 478 -434 762 -41 63 -84 132 -96 153 -29 53 -34
61 -101 160 -73 109 -107 163 -153 247 -20 36 -44 79 -54 95 -31 53 -112 209
-129 250 -9 22 -55 120 -104 219 -78 160 -86 181 -78 210 l9 31 27 -42 c30
-47 35 -49 62 -29 22 16 14 49 -10 40 -14 -6 -19 5 -16 34 1 6 -3 12 -9 12 -5
0 -9 -3 -9 -7 3 -20 -2 -24 -16 -13 -20 17 -19 35 3 57 10 10 31 35 46 57 18
24 31 34 36 27 3 -7 20 -13 36 -14 16 -1 32 -6 36 -12 7 -9 38 52 38 74 0 6
-13 8 -31 4 -29 -6 -31 -4 -24 18 12 40 11 44 -14 43 -35 -1 -61 29 -55 63 6
32 -21 109 -41 117 -17 6 -29 -9 -44 -56 -7 -20 -18 -42 -26 -48 -8 -7 -13
-16 -10 -20 4 -7 -50 -20 -87 -20 -10 0 -36 28 -63 68 -52 77 -144 196 -155
200 -4 2 -10 -3 -13 -10z m508 -378 c3 -5 -1 -10 -9 -10 -9 0 -16 5 -16 10 0
6 4 10 9 10 6 0 13 -4 16 -10z m-397 -64 c2 -25 -5 -51 -22 -83 -14 -25 -26
-58 -26 -74 0 -29 -14 -46 -25 -30 -3 6 -8 53 -10 105 -3 84 -1 98 17 121 18
24 22 25 42 12 14 -9 22 -27 24 -51z m157 -56 c3 -5 17 -10 31 -10 29 0 31
-11 4 -35 -19 -17 -21 -17 -40 0 -11 10 -20 26 -20 37 0 19 15 24 25 8z m152
-836 c4 -11 -59 -44 -82 -44 -8 0 -15 7 -15 15 0 8 -6 15 -12 15 -7 0 -22 8
-33 16 -20 15 -20 15 2 33 l22 18 -24 23 c-14 13 -25 32 -25 43 0 15 17 6 82
-45 45 -36 83 -69 85 -74z m72 -78 c19 -20 31 -36 27 -36 -17 0 -45 21 -71 56
-35 45 -7 33 44 -20z m792 -956 c28 -16 24 -47 -7 -53 -34 -6 -87 37 -64 53
19 13 46 13 71 0z"/>
<path d="M1346 6552 c-8 -13 -5 -88 4 -103 6 -9 11 -5 16 16 4 16 13 40 20 54
7 13 11 28 8 33 -7 10 -41 10 -48 0z"/>
<path d="M8905 6458 c-14 -120 -30 -164 -102 -277 -62 -96 -85 -118 -131 -127
-43 -8 -49 -25 -27 -73 12 -27 29 -44 56 -56 41 -19 50 -26 120 -102 58 -61
84 -111 100 -194 21 -107 37 -105 63 11 32 142 112 258 223 320 29 17 53 34
53 38 0 4 -17 18 -37 32 -21 14 -66 52 -102 85 -66 62 -91 105 -140 245 -13
36 -27 74 -31 85 -5 11 -11 32 -14 48 -10 45 -23 31 -31 -35z"/>
<path d="M1315 6491 c-3 -5 -2 -12 3 -15 5 -3 9 1 9 9 0 17 -3 19 -12 6z"/>
<path d="M1300 6464 c0 -20 27 -37 36 -23 4 7 3 9 -4 5 -6 -3 -15 2 -21 11 -6
10 -11 13 -11 7z"/>
<path d="M8237 5883 c-8 -10 -24 -46 -34 -80 -16 -56 -21 -63 -44 -63 -28 0
-75 -42 -65 -59 4 -6 25 -16 47 -23 35 -10 45 -19 70 -69 34 -69 59 -87 83
-60 9 9 16 21 16 26 0 5 10 30 22 56 20 46 23 48 67 51 64 4 66 28 4 59 -58
29 -63 35 -63 79 0 54 -10 77 -36 89 -34 15 -48 14 -67 -6z"/>
<path d="M427 5813 c-3 -5 -1 -31 4 -58 9 -46 5 -155 -8 -199 -4 -15 -2 -18
13 -12 16 6 15 3 -4 -16 -21 -21 -24 -22 -33 -5 -6 9 -18 17 -28 17 -20 0 -51
-40 -51 -65 0 -20 49 -40 64 -25 18 18 67 12 73 -10 3 -11 9 -17 14 -15 4 3 6
12 2 20 -3 9 1 15 8 16 8 0 21 2 30 4 8 1 32 -5 52 -15 47 -23 76 -29 154 -34
56 -4 62 -2 67 17 9 35 7 41 -20 70 -28 31 -24 47 12 47 39 0 219 58 210 67
-3 3 -36 -4 -75 -16 -38 -11 -95 -21 -128 -21 -40 0 -68 -6 -90 -20 -36 -22
-53 -19 -96 17 -16 13 -35 23 -43 23 -19 0 -18 19 1 26 19 8 20 40 1 51 -8 4
-38 37 -67 73 -28 36 -53 66 -54 68 -2 2 -5 0 -8 -5z"/>
<path d="M196 5484 c-3 -8 -1 -26 4 -40 19 -49 14 -57 -30 -50 -46 7 -49 2
-17 -33 26 -29 51 -84 67 -149 21 -81 119 -152 211 -152 41 0 101 -28 149 -69
40 -33 247 -149 360 -200 102 -47 200 -99 217 -116 11 -12 10 -16 -9 -26 -35
-18 -79 -72 -76 -94 2 -10 22 -33 45 -50 26 -18 45 -41 49 -57 8 -37 16 -35
38 7 10 19 27 37 36 40 10 3 25 14 34 24 15 16 15 21 1 47 -38 72 -5 69 137
-14 53 -31 127 -74 165 -95 37 -21 91 -53 118 -72 119 -79 149 -101 172 -122
13 -13 33 -28 44 -34 12 -6 63 -46 115 -90 52 -43 98 -79 103 -79 4 0 15 8 24
18 15 16 15 21 1 47 -66 127 -321 390 -582 600 -24 19 -40 35 -35 35 15 0 84
72 94 98 10 27 -6 66 -43 98 -35 31 -51 34 -94 15 -79 -36 -94 -77 -49 -135
14 -18 25 -36 25 -40 0 -12 -93 68 -215 184 -115 110 -257 234 -384 335 -72
57 -76 58 -146 63 -66 4 -77 2 -123 -24 l-50 -28 -29 31 c-33 35 -70 50 -86
34 -7 -7 -16 -7 -31 2 -36 20 -88 36 -101 31 -7 -3 -22 7 -34 22 -30 38 -68
57 -75 38z m383 -244 c6 0 11 7 11 15 0 8 6 15 13 15 21 0 8 -62 -14 -67 -10
-3 -20 -12 -23 -20 -4 -8 -11 -11 -18 -6 -7 4 -19 8 -26 9 -24 4 -28 15 -9 28
25 19 21 29 -8 22 -14 -4 -25 -2 -25 4 0 5 3 10 8 11 22 2 45 8 50 14 4 3 12
-1 18 -9 6 -9 16 -16 23 -16z m-70 -73 c6 -8 8 -16 5 -20 -10 -9 -34 4 -34 19
0 18 14 18 29 1z"/>
<path d="M558 5213 c7 -3 16 -2 19 1 4 3 -2 6 -13 5 -11 0 -14 -3 -6 -6z"/>
<path d="M9131 2573 c-1 -6 4 -15 10 -19 8 -4 7 -9 -2 -15 -9 -5 -4 -8 15 -6
23 1 33 -4 43 -23 l14 -25 -3 25 c-2 14 -13 30 -26 36 -13 6 -23 15 -22 19 1
3 -2 10 -6 13 -4 4 -4 1 0 -5 4 -7 3 -13 -3 -13 -5 0 -12 6 -14 13 -4 9 -6 9
-6 0z"/>
<path d="M9600 80 l0 -80 320 0 320 0 0 80 0 80 -320 0 -320 0 0 -80z"/>
</g>
</svg>
